<svg width="48" height="48" viewBox="0 0 48 48" fill="none" xmlns="http://www.w3.org/2000/svg">
<path d="M23.2002 23.9011C23.2002 23.9011 25.4847 21.6467 26.6369 21.7469C27.4234 21.8145 29.2695 21.4964 29.4799 21.6993C29.6903 21.9022 32.0925 23.6456 29.0766 25.4941C29.0766 25.4941 32.085 23.2523 23.2002 23.9011Z" fill="#12284C"/>
<path d="M8.15111 18.8588L5 20.1012C5 20.1012 16.6576 19.4775 18.9896 19.6203C22.8396 19.8557 26.6419 22.09 26.6419 22.09C26.6419 22.09 27.1604 21.3085 25.7452 20.1688C23.4382 18.3102 13.5415 17.5487 8.15111 18.8588Z" fill="#12284C"/>
<path d="M5.46091 30.7694C5.46091 30.7694 11.6053 21.4638 27.7541 23.8184C27.7541 23.8184 16.332 22.9592 7.25188 30.1081L5.46091 30.7694Z" fill="#12284C"/>
<path d="M42.187 4L6.86861 9.94151L11.9084 14.9838L11.693 16.131C12.0205 16.2348 12.3554 16.3135 12.6949 16.3665L12.4294 16.2963L12.7225 14.7333L8.43164 10.44L41.2177 4.9293L39.6997 11.9429L16.5449 15.8429L19.4605 17.416H19.4254C20.4274 17.5638 20.8833 17.6414 21.2765 17.7066C21.1488 17.6414 18.6489 16.2387 18.6489 16.2387L40.3184 12.6042L42.187 4Z" fill="#FFC629"/>
<path d="M16.5449 15.8429L39.6997 11.9479L41.2177 4.93431L8.43164 10.44L12.7199 14.7333L12.4269 16.2963L12.6924 16.3665C14.2679 16.667 17.2738 17.1029 19.4254 17.411H19.4605L16.5449 15.8429Z" fill="#12284C"/>
<path d="M12.6924 16.3665C14.2679 16.667 17.2738 17.1029 19.4254 17.411C17.4065 17.2131 15.1396 17.0428 12.6924 16.3665Z" fill="#12284C"/>
<path d="M24.901 18.7085C25.0238 18.7761 25.1515 18.8488 25.2668 18.9214C25.1766 18.8613 25.0589 18.7887 24.9161 18.706L24.901 18.7085Z" fill="#12284C"/>
<path d="M29.5075 21.564C28.4079 21.1808 26.8974 21.4037 26.8974 21.4037C25.9431 18.9991 22.0155 18.1098 19.3829 17.9621C18.8819 17.9345 18.3809 17.9069 17.88 17.8543C15.7577 17.674 13.6594 17.277 11.6178 16.6696L11.4175 17.5387L6.77596 19.3948C12.1414 18.8588 23.6086 16.915 26.672 21.822C27.5587 21.6742 28.8963 21.6617 29.5551 21.9548H29.5827C29.9536 22.1398 30.2455 22.4524 30.4046 22.8352C30.5638 23.218 30.5797 23.6453 30.4493 24.0388C30.2414 24.6275 29.3998 25.3464 29.0316 25.5417C31.1056 24.7502 31.5214 22.2629 29.5075 21.564Z" fill="#FFC629"/>
<path d="M21.8176 20.2815C17.915 19.3522 14.1577 20.6047 11.0116 23.2548C9.10043 24.8479 7.1241 26.6489 5.6763 28.6928C5.6763 28.6928 13.2635 19.6278 20.1719 20.6297C20.7903 20.7077 21.3867 20.9096 21.9253 21.2234C21.7887 20.9293 21.7509 20.5989 21.8176 20.2815Z" fill="#12284C"/>
<path d="M26.4941 21.9698C25.6245 21.1969 24.6223 20.5876 23.5359 20.1713C18.3408 18.0497 13.3236 20.0561 9.64649 23.9762C8.2563 25.4466 6.69577 26.967 5.6763 28.6928C13.3437 17.6665 22.1457 20.0311 22.1457 20.0311L22.2033 20.3742L22.3586 20.4243C22.6743 20.517 22.9899 20.6197 23.308 20.7424C24.0731 21.0306 24.8073 21.3948 25.4997 21.8295C25.671 21.7483 25.8533 21.6926 26.0408 21.6642L25.9055 22.0875C25.7752 21.9974 25.655 21.9147 25.5097 21.8371C25.4071 21.8824 25.3076 21.9342 25.2116 21.9924H25.2367C25.1781 22.0313 25.117 22.0664 25.0538 22.0976C24.3837 22.5855 23.7851 23.1647 23.2754 23.8184H23.308C24.0093 23.1446 24.8885 22.3005 26.4941 21.9698Z" fill="#FFC629"/>
<path d="M26.0408 21.6642C25.8567 21.6936 25.6779 21.7492 25.5097 21.8295C25.6425 21.9147 25.7752 21.9974 25.9055 22.08L26.0408 21.6642Z" fill="#FFC629"/>
<path d="M23.298 23.8009H23.2654L23.1602 23.9261L23.298 23.8009Z" fill="#FFC629"/>
<path d="M11.0116 23.2548C14.1577 20.6047 17.915 19.3522 21.8176 20.2815V20.2465L22.1958 20.3742L22.1457 20.0311C22.1457 20.0311 13.3437 17.6665 5.6763 28.6928C7.1241 26.6489 9.10043 24.8479 11.0116 23.2548Z" fill="#FFC629"/>
<path d="M23.4107 21.6993C23.04 21.4488 22.5991 20.9804 22.8646 20.5596C22.6952 20.5239 22.528 20.4788 22.3636 20.4243L22.2083 20.3817L21.8176 20.2815C21.7525 20.5994 21.792 20.9298 21.9303 21.2234C22.4162 22.2253 24.0344 22.596 25.0438 22.0825C25.0973 22.0475 25.1499 22.0149 25.2017 21.9848C24.8998 22.0656 24.5843 22.0819 24.2758 22.0327C23.9672 21.9835 23.6725 21.8699 23.4107 21.6993Z" fill="#FFC629"/>
<path d="M25.2017 21.9848C25.1482 22.0149 25.0956 22.0475 25.0438 22.0825C25.107 22.0514 25.1681 22.0163 25.2267 21.9773L25.2017 21.9848Z" fill="#FFC629"/>
<path d="M21.8176 20.2815L22.2033 20.3817L21.8251 20.254L21.8176 20.2815Z" fill="#FFC629"/>
<path d="M16.4171 42.194C13.9624 41.4901 10.155 38.8625 8.28138 37.3897C8.12299 37.5893 7.97822 37.7993 7.84805 38.0184C9.77177 39.5213 13.6242 42.174 16.2092 42.9179L16.9958 43.1433L19.6309 29.8676C19.3771 29.9203 19.1262 29.9863 18.8794 30.0655L16.4171 42.194Z" fill="#FFC629"/>
<path d="M8.28138 37.3897L8.26383 37.3772C10.1325 38.8475 13.9549 41.4876 16.4171 42.194L18.8694 30.068C12.983 32.132 10.4731 34.439 8.28138 37.3897Z" fill="#12284C"/>
<path d="M28.0897 25.0408L19.5281 26.694L19.1324 28.6979C19.3603 28.788 19.5682 28.8557 19.8112 28.9483L20.1418 27.3252L28.7786 25.662L28.9263 24.7176C28.684 24.6339 28.431 24.585 28.1749 24.5724L28.0897 25.0408Z" fill="#FFC629"/>
<path d="M28.0446 25.0408H28.0998L28.1899 24.5874C22.1357 24.2467 16.7177 25.8799 15.2048 27.6333C16.5609 27.8062 17.8868 28.1653 19.1449 28.7004L19.5407 26.6965L28.0446 25.0408Z" fill="#12284C"/>
<path d="M28.0321 25.0458L19.5307 26.694L28.0897 25.0358L28.0672 25.0383L28.0321 25.0458Z" fill="#12284C"/>
<path d="M29.798 24.5398C29.773 24.1365 29.4198 24.0388 28.9364 23.9461L28.771 23.9161C27.6321 23.7844 26.4857 23.7283 25.3394 23.7483C24.7107 23.7483 24.0244 23.7683 23.308 23.8084L23.1702 23.9361C23.2036 23.8944 23.2387 23.8518 23.2754 23.8084C21.6698 23.8986 19.8863 24.0388 18.2181 24.4872C12.0136 26.1429 7.82547 29.3616 7.25436 30.1081C11.9159 28.2244 16.9406 29.4468 16.9406 29.4468C16.9406 29.4468 11.7155 29.532 8.23877 33.5247C6.37265 35.6789 5 38.9703 5.25048 44C5.23796 43.1559 5.37823 40.5533 7.31448 37.5851C7.39213 37.4673 7.46728 37.3496 7.54994 37.2294C9.32087 34.6819 11.7055 32.3249 17.1611 30.1206C17.7547 29.8701 19.1073 29.4142 19.7561 29.4468C17.5243 28.3747 14.7088 27.9664 13.787 28.004C13.787 28.004 14.8616 26.2807 18.7566 25.1084C20.5852 24.5573 22.3962 24.2467 26.6745 24.149C27.4188 24.1093 28.1653 24.1487 28.9013 24.2668C29.4198 24.3895 29.8582 24.4747 29.024 25.5192C29.1267 25.4516 29.8106 24.8754 29.798 24.5398Z" fill="#FFC629"/>
<path d="M23.6812 18.1825C24.0807 18.3368 24.4683 18.5201 24.841 18.731L29.5476 17.8594L28.9164 20.9854C29.1642 21.0231 29.4093 21.0766 29.6503 21.1457L30.517 16.9175L23.6812 18.1825Z" fill="#FFC629"/>
<path d="M28.9164 20.9854L29.5476 17.8594L24.841 18.731C24.9837 18.8137 25.0914 18.8863 25.1916 18.9465C26.1134 19.5075 26.9751 20.1989 27.2331 20.9328C27.7944 20.8875 28.359 20.9051 28.9164 20.9854Z" fill="#12284C"/>
<path d="M25.2893 21.812C25.2893 21.812 23.6536 22.2904 23.7037 21.0606C24.2492 21.2736 24.779 21.5247 25.2893 21.812Z" fill="#12284C"/>
</svg>
