<svg width="10" height="10" viewBox="0 0 10 10" fill="none" xmlns="http://www.w3.org/2000/svg">
<path d="M5 10C4.31046 10 3.6634 9.86928 3.05882 9.60784C2.45425 9.34967 1.9232 8.99183 1.46569 8.53431C1.00817 8.0768 0.648693 7.54575 0.387255 6.94118C0.129085 6.3366 0 5.68954 0 5C0 4.31046 0.129085 3.6634 0.387255 3.05882C0.648693 2.45425 1.00817 1.9232 1.46569 1.46569C1.9232 1.0049 2.45425 0.645425 3.05882 0.387255C3.6634 0.129085 4.31046 0 5 0C5.68954 0 6.3366 0.129085 6.94118 0.387255C7.54575 0.645425 8.0768 1.0049 8.53431 1.46569C8.99183 1.9232 9.34967 2.45425 9.60784 3.05882C9.86928 3.6634 10 4.31046 10 5C10 5.68954 9.86928 6.3366 9.60784 6.94118C9.34967 7.54575 8.99183 8.0768 8.53431 8.53431C8.0768 8.99183 7.54575 9.34967 6.94118 9.60784C6.3366 9.86928 5.68954 10 5 10ZM5 9.16667C5.57516 9.16667 6.11438 9.05882 6.61765 8.84314C7.12091 8.62745 7.56373 8.32843 7.94608 7.94608C8.32843 7.56373 8.62745 7.12091 8.84314 6.61765C9.05882 6.11438 9.16667 5.57516 9.16667 5C9.16667 4.42484 9.05882 3.88562 8.84314 3.38235C8.62745 2.87582 8.32843 2.43301 7.94608 2.05392C7.56373 1.67157 7.12091 1.37255 6.61765 1.15686C6.11438 0.941176 5.57516 0.833333 5 0.833333C4.42484 0.833333 3.88562 0.941176 3.38235 1.15686C2.87909 1.37255 2.43627 1.67157 2.05392 2.05392C1.67157 2.43301 1.37255 2.87582 1.15686 3.38235C0.941176 3.88562 0.833333 4.42484 0.833333 5C0.833333 5.57516 0.941176 6.11438 1.15686 6.61765C1.37255 7.12091 1.67157 7.56373 2.05392 7.94608C2.43627 8.32843 2.87909 8.62745 3.38235 8.84314C3.88562 9.05882 4.42484 9.16667 5 9.16667ZM4.14216 7.7402C4.04085 7.7402 3.95588 7.70752 3.88725 7.64216C3.81863 7.5768 3.78431 7.4951 3.78431 7.39706C3.78431 7.29902 3.81863 7.21732 3.88725 7.15196C3.95588 7.0866 4.04085 7.05392 4.14216 7.05392H4.75V4.80392H4.22549C4.12418 4.80392 4.03922 4.77124 3.97059 4.70588C3.90196 4.64052 3.86765 4.55882 3.86765 4.46078C3.86765 4.36275 3.90196 4.28105 3.97059 4.21569C4.03922 4.15033 4.12418 4.11765 4.22549 4.11765H5.14706C5.27124 4.11765 5.36601 4.1585 5.43137 4.2402C5.49673 4.31863 5.52941 4.42484 5.52941 4.55882V7.05392H6.13726C6.23856 7.05392 6.32353 7.0866 6.39216 7.15196C6.46078 7.21732 6.4951 7.29902 6.4951 7.39706C6.4951 7.4951 6.46078 7.5768 6.39216 7.64216C6.32353 7.70752 6.23856 7.7402 6.13726 7.7402H4.14216ZM4.95588 3.29902C4.77941 3.29902 4.62909 3.23693 4.5049 3.11275C4.38072 2.98856 4.31863 2.83824 4.31863 2.66176C4.31863 2.48203 4.38072 2.33007 4.5049 2.20588C4.62909 2.0817 4.77941 2.01961 4.95588 2.01961C5.13562 2.01961 5.28595 2.0817 5.40686 2.20588C5.53105 2.33007 5.59314 2.48203 5.59314 2.66176C5.59314 2.83824 5.53105 2.98856 5.40686 3.11275C5.28595 3.23693 5.13562 3.29902 4.95588 3.29902Z" fill="black"/>
</svg>
