<svg width="10" height="10" viewBox="0 0 10 10" fill="none" xmlns="http://www.w3.org/2000/svg">
<path d="M0.165626 9.83596C0.0899765 9.76446 0.0395438 9.68034 0.0143275 9.5836C-0.00668615 9.48686 -0.00458479 9.39011 0.0206316 9.29338C0.0458479 9.19663 0.0941792 9.11251 0.165626 9.04101L4.20024 4.99685L0.165626 0.95899C0.0941792 0.887487 0.0458479 0.803365 0.0206316 0.706625C-0.000382065 0.609884 -0.000382065 0.513144 0.0206316 0.416404C0.0458479 0.319663 0.0941792 0.235542 0.165626 0.164038C0.237072 0.0883281 0.321126 0.0399579 0.417789 0.0189274C0.514452 -0.00630915 0.611114 -0.00630915 0.707777 0.0189274C0.808642 0.0399579 0.894798 0.0883281 0.966244 0.164038L5.00086 4.20189L9.03547 0.164038C9.10692 0.0883281 9.19098 0.0399579 9.28764 0.0189274C9.3843 -0.00630915 9.48096 -0.00630915 9.57763 0.0189274C9.67429 0.0399579 9.76044 0.0883281 9.83609 0.164038C9.90754 0.235542 9.95587 0.319663 9.98109 0.416404C10.0063 0.513144 10.0063 0.609884 9.98109 0.706625C9.95587 0.803365 9.90754 0.887487 9.83609 0.95899L5.80148 4.99685L9.83609 9.04101C9.90754 9.11251 9.95377 9.19663 9.97478 9.29338C10 9.39011 10 9.48686 9.97478 9.5836C9.95377 9.68034 9.90754 9.76446 9.83609 9.83596C9.76465 9.91167 9.67849 9.96004 9.57763 9.98107C9.48096 10.0063 9.3843 10.0063 9.28764 9.98107C9.19098 9.95584 9.10692 9.90746 9.03547 9.83596L5.00086 5.79811L0.966244 9.83596C0.894798 9.90746 0.810744 9.95584 0.714081 9.98107C0.617418 10.0063 0.520756 10.0063 0.424093 9.98107C0.32743 9.95584 0.241275 9.90746 0.165626 9.83596Z" fill="black"/>
</svg>
